<svg xmlns="http://www.w3.org/2000/svg" xmlns:xlink="http://www.w3.org/1999/xlink" width="160" height="41.181" viewBox="0 0 160 41.181">
  <defs>
    <rect id="rect-1" width="160" height="41.181" x="0" y="0"/>
    <mask id="mask-2" maskContentUnits="userSpaceOnUse" maskUnits="userSpaceOnUse">
      <rect width="160" height="41.181" x="0" y="0" fill="black"/>
      <use fill="white" xlink:href="#rect-1"/>
    </mask>
  </defs>
  <g>
    <use fill="none" xlink:href="#rect-1"/>
    <g mask="url(#mask-2)">
      <path fill="rgb(255,255,255)" fill-rule="evenodd" d="M0 30.45975491h1.34055412v9.45885164h3.49318473v1.15783922H0"/>
      <path fill="rgb(255,255,255)" fill-rule="evenodd" d="M15.31434631 41.07626475L11.8358078 30.45956554h-1.46194458L6.80428314 41.07626475h1.34159851l.85184479-2.76855468h4.06037903l.85289001 2.76855468h1.40335083zm-4.23934173-9.21875l1.63148498 5.29492188h-3.3404007l1.67857362-5.29492188h.0303421z"/>
      <path fill="rgb(255,255,255)" fill-rule="evenodd" d="M16.38071318 30.45975491h1.40648301l1.74135991 8.60961652h.02825524l1.9056589-8.60961652h1.7099652l1.9067054 8.60961652h.03034821l1.86379928-8.60961652h1.28090417l-2.31902258 10.61669086h-1.58647934l-2.01554038-9.0973529h-.0324412l-2.0144939 9.0973529h-1.58438636"/>
      <path fill="rgb(255,255,255)" fill-rule="evenodd" d="M34.15116553 30.45975491h4.7625775v1.15575266h-3.41783742v3.37805696h3.25144546v1.15575266h-3.25144546v4.92712858h-1.34474008"/>
      <path fill="rgb(255,255,255)" fill-rule="evenodd" d="M41.6136881 41.07644577h1.34244826V30.45975491h-1.34244827v10.61669086z"/>
      <path fill="rgb(255,255,255)" fill-rule="evenodd" d="M48.99563599 30.45956554h-2.7303009v10.61669921h1.34474181v-4.80615234h.60905457c1.00776672 0 1.38973999.33447266 1.6942749 1.21679688l1.22019959 3.58935546h1.44729614l-1.49647522-4.25976562c-.2103424-.60742188-.51487732-.91113281-1.15637207-1.03320313v-.03125c1.57391357-.33691406 2.10343933-1.41552734 2.10343933-2.54052734 0-.77490234-.24172974-1.50341797-.7911377-2.02392578-.4908142-.45458984-1.11242675-.72802734-2.24472045-.72802734zm-.34744263 4.71435546H47.6100769v-3.62158203h1.06741333c1.17312623 0 1.95170594.56640625 1.95170594 1.7524414 0 .92773438-.5483551 1.86914063-1.98100281 1.86914063z"/>
      <path fill="rgb(255,255,255)" fill-rule="evenodd" d="M55.14585459 30.45975491h2.07309735l2.67168982 8.4412301h.0324412l2.7282003-8.4412301h2.01135442v10.61669086H63.38278v-9.15848948h-.03034822l-3.0191246 9.15848948h-.9742825l-2.90087121-9.15848948h-.03034822v9.15848948h-1.28195066"/>
      <path fill="rgb(255,255,255)" fill-rule="evenodd" d="M72.2172514 31.99536814c-.50126888-.30484828-1.1595113-.48700609-1.81566073-.48700609-1.00463072 0-1.66078016.68262228-1.66078016 1.58120484 0 .68470885.27313397 1.11057835 1.79996337 1.99288564 1.64717578.9445915 2.19344374 1.8717601 2.19344374 3.08906664 0 1.68928931-1.04858332 3.00967255-3.09447192 3.00967255-.8539361 0-1.66182665-.1814275-2.2300709-.45643779v-1.3836064c.61324334.3638983 1.40648301.68470886 2.03019125.68470886 1.20764984 0 1.8941475-.80573008 1.8941475-1.67301404 0-.82117071-.2166235-1.29388377-1.64926876-2.16075042-1.92135625-1.15450071-2.34832431-1.80937157-2.34832431-3.17586807 0-1.75115619 1.34055412-2.66528371 2.95947466-2.66528371.69905554 0 1.4514821.1540934 1.92135625.35169183v1.29273616"/>
      <path fill="rgb(255,255,255)" fill-rule="evenodd" d="M77.92376318 30.45975491h1.40229705l1.73717395 8.60961652h.0324412l1.90879837-8.60961652h1.70473275l1.90984486 8.60961652h.03034822l1.85961332-8.60961652h1.28195066l-2.32006907 10.61669086h-1.58647935l-2.01030793-9.0973529h-.03348769l-2.0134474 9.0973529H80.2396463"/>
      <path fill="rgb(255,255,255)" fill-rule="evenodd" d="M98.80856323 35.6612257c0-3.2841797-1.5100708-5.3100586-3.87515259-5.3100586-2.51785278 0-3.99967956 1.85742187-3.99967956 5.5234375 0 3.28515625 1.51217651 5.30664062 3.87515259 5.30664062 2.51994323 0 3.99967956-1.85205078 3.99967956-5.52001953zm-1.40437317 0c0 3.27099609-1.1898651 4.42480468-2.5953064 4.42480468-1.79681396 0-2.46762084-2.06640625-2.46762084-4.21191406 0-3.26757813 1.1877594-4.4272461 2.59216308-4.4272461 1.79890442 0 2.47076416 2.0703125 2.47076416 4.21435547z"/>
      <path fill="rgb(255,255,255)" fill-rule="evenodd" d="M104.3309021 30.45956554h-2.7281952v10.61669921h1.34056092v-4.80615234h.60905457c1.00776672 0 1.38973999.33447266 1.69425964 1.21679688l1.22021485 3.58935546h1.4493866l-1.49438477-4.25976562c-.21662903-.60742188-.52114869-.91113281-1.16056824-1.03320313v-.03125c1.57392883-.33691406 2.10554504-1.41552734 2.10554504-2.54052734 0-.77490234-.24383545-1.50341797-.79533386-2.02392578-.48661804-.45458984-1.1124115-.72802734-2.24053955-.72802734zm-.35162354 4.71435546h-1.036026v-3.62158203h1.06532288c1.17521667 0 1.9559021.56640625 1.9559021 1.7524414 0 .92773438-.55046082 1.86914063-1.98519898 1.86914063z"/>
      <path fill="rgb(255,255,255)" fill-rule="evenodd" d="M110.63077205 30.45975491h1.3426471v9.45885164h3.49737069v1.15783922h-4.8400178"/>
      <path fill="rgb(255,255,255)" fill-rule="evenodd" d="M119.6630249 30.45956554h-2.3179779v10.61669921h1.66392517c3.9975891 0 5.46058655-2.40234375 5.46058655-5.47460937 0-2.39013672-1.02346802-3.72753906-1.96531678-4.38183594-.61534118-.42578125-1.42112732-.7602539-2.84121704-.7602539zm-.16743469 9.45898437h-.80789185v-8.30322266h.80789185c2.62355041 0 3.56852722 1.76367188 3.56852722 3.98681641 0 2.7211914-1.21601868 4.31640625-3.56852722 4.31640625z"/>
      <path fill="rgb(255,255,255)" fill-rule="evenodd" d="M126.32603406 30.45975491h1.40439003l1.73926693 8.60961652h.03034822l1.90670539-8.60961652h1.70891871l1.9067054 8.60961652h.0313947l1.85961332-8.60961652h1.27985768l-2.3158831 10.61669086H134.288779l-2.0134474-9.0973529h-.03034822l-2.00926144 9.0973529h-1.58961882"/>
      <path fill="rgb(255,255,255)" fill-rule="evenodd" d="M140.4714439 41.07644577h1.33959134V30.45975491h-1.33959134v10.61669086z"/>
      <path fill="rgb(255,255,255)" fill-rule="evenodd" d="M147.2882843 30.45956554h-2.32006836v10.61669921h1.66601563c3.9975891 0 5.45953369-2.40234375 5.45953369-5.47460937 0-2.39013672-1.0203247-3.72753906-1.96635437-4.38183594-.61323547-.42578125-1.42008972-.7602539-2.83912659-.7602539zm-.16534424 9.45898437h-.81103515v-8.30322266h.81103515c2.62249756 0 3.56852723 1.76367188 3.56852723 3.98681641 0 2.7211914-1.22021485 4.31640625-3.56852723 4.31640625z"/>
      <path fill="rgb(255,255,255)" fill-rule="evenodd" d="M154.83870968 30.45975491h4.96036418v1.15575266h-3.61771709v3.37805696h3.45027863v1.15575266h-3.45027863v3.76928936H160v1.15783922h-5.16129032"/>
      <path fill="rgb(255,255,255)" fill-rule="evenodd" d="M70.31273317 13.3902679H70.282071l-2.65013212 8.78645356h-1.37759987l-2.52832064-8.78645356h-.03066217v8.78645356h-1.75653402V11.63994634h2.89208068l2.18088585 7.86544035h.02940638l2.22714073-7.86544035h2.80093138v10.53677512h-1.75653403"/>
      <path fill="rgb(255,255,255)" fill-rule="evenodd" d="M75.50636004 11.63994634h5.55623578v1.5384301h-3.61855427v2.80873559h3.42348847v1.5384301h-3.42348847v3.110767h3.77102791v1.54041233h-5.70870942"/>
      <path fill="rgb(255,255,255)" fill-rule="evenodd" d="M87.8005371 11.6402296h-3.29885863v10.5366211h1.9376831v-4.5288086h.43942261c.71130371 0 1.21078491.27001953 1.46748352 1.1015625l1.04534912 3.4272461h2.06022644l-1.37844848-4.01513673c-.33308411-.9819336-.77261353-1.16259765-1.16619874-1.22167968v-.04492188c1.180542-.18261719 2.04515076-1.10351562 2.04515076-2.47753906 0-1.93261719-1.27253723-2.77734375-3.1518097-2.77734375zm1.15280152 2.98876953c0 1.06982422-.69696045 1.59960937-1.72712707 1.59960937h-.78684998v-3.11083984h.78684998c1.09024048 0 1.72712707.30273438 1.72712707 1.51123047z"/>
      <path fill="rgb(255,255,255)" fill-rule="evenodd" d="M94.23686262 22.17672146h1.93763964V11.63994634h-1.93763964v10.53677512z"/>
      <path fill="rgb(255,255,255)" fill-rule="evenodd" d="M100.90007587 13.17837644H98.5381472v-1.5384301h6.646888v1.5384301h-2.34644063v8.99834502h-1.93851869"/>
      <path fill="rgb(255,255,255)" fill-rule="evenodd" d="M108.59346008 19.64120616h3.63267517l.74197388 2.53564453h1.99879456l-3.40686036-10.5366211h-2.12039184l-3.54216003 10.5366211h1.9376831l.75828552-2.53564453zm1.89141846-6.40185547l1.3338623 4.92236328h-2.81851196l1.45399475-4.92236328h.03065491z"/>
      <path fill="rgb(255,255,255)" fill-rule="evenodd" d="M117.55591136 20.1382442c.3788295.24131215 1.2118358.65007175 2.2415823.65007175.84765717 0 1.60636266-.46989619 1.60636266-1.52538902 0-.7548177-.44161892-1.08689575-1.38032075-1.6004013l-.98265443-.5420916c-1.04649033-.57453781-1.72566255-1.40593273-1.72566255-2.76345697 0-1.88688774 1.5592706-2.8677856 3.32993224-2.8677856 1.12079114 0 1.90879836.2852345 2.21018758.37495713l-.08895168 1.61709389c-.47092065-.18059288-1.09148942-.45236898-1.98414567-.45236898-.96905005 0-1.46927243.51340123-1.46927243 1.23639869 0 .78695092.52952411 1.08647844 1.12079115 1.41949545l1.135442.63494409c1.24218403.69482873 1.8313581 1.35783722 1.8313581 2.83846925 0 2.14113664-1.5278759 3.17138194-3.54236979 3.17138194-1.0600947 0-1.87845014-.15284146-2.40902074-.47073082l.10674201-1.7205879"/>
      <path fill="rgb(255,255,255)" fill-rule="evenodd" d="M70.31273317 13.3902679H70.282071l-2.65013212 8.78645356h-1.37759987l-2.52832064-8.78645356h-.03066217v8.78645356h-1.75653402V11.63994634h2.89208068l2.18088585 7.86544035h.02940638l2.22714073-7.86544035h2.80093138v10.53677512h-1.75653403"/>
      <path fill="rgb(255,255,255)" fill-rule="evenodd" d="M75.50636004 11.63994634h5.55623578v1.5384301h-3.61855427v2.80873559h3.42348847v1.5384301h-3.42348847v3.110767h3.77102791v1.54041233h-5.70870942"/>
      <path fill="rgb(255,255,255)" fill-rule="evenodd" d="M87.8005371 11.6402296h-3.29885863v10.5366211h1.9376831v-4.5288086h.43942261c.71130371 0 1.21078491.27001953 1.46748352 1.1015625l1.04534912 3.4272461h2.06022644l-1.37844848-4.01513673c-.33308411-.9819336-.77261353-1.16259765-1.16619874-1.22167968v-.04492188c1.180542-.18261719 2.04515076-1.10351562 2.04515076-2.47753906 0-1.93261719-1.27253723-2.77734375-3.1518097-2.77734375zm1.15280152 2.98876953c0 1.06982422-.69696045 1.59960937-1.72712707 1.59960937h-.78684998v-3.11083984h.78684998c1.09024048 0 1.72712707.30273438 1.72712707 1.51123047z"/>
      <path fill="rgb(255,255,255)" fill-rule="evenodd" d="M94.23686262 22.17672146h1.93763964V11.63994634h-1.93763964v10.53677512z"/>
      <path fill="rgb(255,255,255)" fill-rule="evenodd" d="M100.90007587 13.17837644H98.5381472v-1.5384301h6.646888v1.5384301h-2.34644063v8.99834502h-1.93851869"/>
      <path fill="rgb(255,255,255)" fill-rule="evenodd" d="M108.59346008 19.64120616h3.63267517l.74197388 2.53564453h1.99879456l-3.40686036-10.5366211h-2.12039184l-3.54216003 10.5366211h1.9376831l.75828552-2.53564453zm1.89141846-6.40185547l1.3338623 4.92236328h-2.81851196l1.45399475-4.92236328h.03065491z"/>
      <path fill="rgb(255,255,255)" fill-rule="evenodd" d="M117.55591136 20.1382442c.3788295.24131215 1.2118358.65007175 2.2415823.65007175.84765717 0 1.60636266-.46989619 1.60636266-1.52538902 0-.7548177-.44161892-1.08689575-1.38032075-1.6004013l-.98265443-.5420916c-1.04649033-.57453781-1.72566255-1.40593273-1.72566255-2.76345697 0-1.88688774 1.5592706-2.8677856 3.32993224-2.8677856 1.12079114 0 1.90879836.2852345 2.21018758.37495713l-.08895168 1.61709389c-.47092065-.18059288-1.09148942-.45236898-1.98414567-.45236898-.96905005 0-1.46927243.51340123-1.46927243 1.23639869 0 .78695092.52952411 1.08647844 1.12079115 1.41949545l1.135442.63494409c1.24218403.69482873 1.8313581 1.35783722 1.8313581 2.83846925 0 2.14113664-1.5278759 3.17138194-3.54236979 3.17138194-1.0600947 0-1.87845014-.15284146-2.40902074-.47073082l.10674201-1.7205879"/>
      <path fill="rgb(255,255,255)" fill-rule="evenodd" d="M55.26619051 10.1789281c0 .73353465-.60089475 1.32977282-1.3428564 1.32977282H35.64365959c-.74321744 0-1.34494938-.59623817-1.34494938-1.32977282 0-.73635153.60173194-1.3325897 1.34494938-1.3325897h18.27967454c.74196164 0 1.3428564.59623817 1.3428564 1.3325897"/>
      <path fill="rgb(255,255,255)" fill-rule="evenodd" d="M40.2752165 20.80657346c0 .73562123-.59806923 1.33060745-1.33469378 1.33060745-.73788033 0-1.33469377-.59498622-1.33469377-1.33060745v-6.94557474c0-.7347866.59681344-1.33060745 1.33469377-1.33060745.73662455 0 1.33469377.59582085 1.33469377 1.33060745v6.94557474"/>
      <path fill="rgb(255,255,255)" fill-rule="evenodd" d="M46.11756272 20.80657346c0 .73562123-.59765063 1.33060745-1.33469377 1.33060745-.73662454 0-1.33469377-.59498622-1.33469377-1.33060745v-6.94557474c0-.7347866.59806923-1.33060745 1.33469377-1.33060745.73704314 0 1.33469377.59582085 1.33469377 1.33060745v6.94557474"/>
      <path fill="rgb(255,255,255)" fill-rule="evenodd" d="M51.96116474 20.80657346c0 .73562123-.59681343 1.33060745-1.33469377 1.33060745-.73788033 0-1.33469377-.59498622-1.33469377-1.33060745v-6.94557474c0-.7347866.59681344-1.33060745 1.33469377-1.33060745.73788034 0 1.33469377.59582085 1.33469377 1.33060745v6.94557474"/>
      <path fill="rgb(255,255,255)" fill-rule="evenodd" d="M44.78203176 2e-7H29.7416634c-.06749863 0-.12264867.05174701-.12882296.11695241-.00418596.06843959.0420689.12634198.10747455.13854843.06624284.01022421 6.58964498 1.16962836 7.76495827 7.4652357.00941842.05863269.06006855.0998425.1205557.10474594.05923134.00406882.11323025-.03547173.12882295-.09379144.01506946-.05216432 1.62687387-5.38346205 7.04737985-5.38346205 5.42259896 0 7.03398477 5.33129773 7.0483217 5.38346205.01841822.0583197.07273107.09786026.13081128.09379144.05923136-.00490344.10956754-.04611325.12055569-.10474595C53.25619653 1.4251294 59.78043586.26572525 59.84584151.25550104c.06613819-.01220645.11239306-.07010884.10705596-.13854843-.00523245-.0652054-.06132433-.1169524-.1295555-.1169524h-15.0413102"/>
      <path fill="rgb(255,255,255)" fill-rule="evenodd" d="M128.20603943 8.83114757c-1.66601563 0-3.02226257 1.3515625-3.02226257 3.0126953 0 1.66064454 1.35624694 3.01269532 3.02226257 3.01269532 1.66601562 0 3.02226257-1.35205078 3.02226257-3.01269531 0-1.66113281-1.35624695-3.01269531-3.02226257-3.01269531zm2.28553772 3.0126953c0-1.41015624-1.02137757-2.42919921-2.28553772-2.42919921-1.26416016 0-2.28553772 1.01904297-2.28553772 2.42919922s1.02137756 2.42871094 2.28553772 2.42871094c1.26416015 0 2.28553772-1.0185547 2.28553772-2.42871094zm-2.17669678-1.71972655h-1.27253723v3.4140625h.63626099v-1.46923828h.38511657l.88742066 1.46923828h.65301513l-.9209137-1.49414063c.5609131-.05029297.89579774-.3334961.89579774-.91748047 0-.71826172-.44371033-1.0024414-1.26416016-1.0024414zm-.07429504 1.4609375h-.56196595v-.97607422h.56929017c.32650756 0 .69487.06591797.69487.46679687 0 .45947266-.32650758.50927735-.70219422.50927735z"/>
    </g>
  </g>
</svg>
