<?xml version="1.0" encoding="utf-8"?>
<!-- Generator: Adobe Illustrator 15.0.0, SVG Export Plug-In . SVG Version: 6.00 Build 0)  -->
<!DOCTYPE svg PUBLIC "-//W3C//DTD SVG 1.1//EN" "http://www.w3.org/Graphics/SVG/1.1/DTD/svg11.dtd">
<svg version="1.1" id="Layer_1" xmlns="http://www.w3.org/2000/svg" xmlns:xlink="http://www.w3.org/1999/xlink" x="0px" y="0px"
	 width="145px" height="32.723px" viewBox="0 0 145 32.723" enable-background="new 0 0 145 32.723" xml:space="preserve">
<g>
	<g>
		<rect id="rect-1_1_" fill="none" width="145" height="32.723"/>
	</g>
	<defs>
		<filter id="Adobe_OpacityMaskFilter" filterUnits="userSpaceOnUse" x="0" y="0" width="145" height="32.723">
			<feColorMatrix  type="matrix" values="1 0 0 0 0  0 1 0 0 0  0 0 1 0 0  0 0 0 1 0"/>
		</filter>
	</defs>
	<mask maskUnits="userSpaceOnUse" x="0" y="0" width="145" height="32.723" id="mask-2">
		<rect filter="url(#Adobe_OpacityMaskFilter)" width="145" height="32.723"/>
		<g>
			<rect id="rect-1" fill="#FFFFFF" width="145" height="32.723"/>
		</g>
	</mask>
	<g mask="url(#mask-2)">
		<path fill="#FFFFFF" d="M52.814,32.132h-5.835L46.905,0h6.353v13.665h0.074c1.478-1.994,3.915-2.733,6.574-2.733
			c5.835,0,9.455,5.245,9.455,11.006c0,6.278-3.989,10.71-10.12,10.71c-2.881,0-5.393-1.772-6.353-3.25h-0.074V32.132z
			 M57.911,16.546c-3.176,0-5.097,2.143-5.097,5.245c0,3.176,1.995,5.244,5.097,5.244c3.177,0,5.097-2.143,5.097-5.244
			C63.008,18.688,61.088,16.546,57.911,16.546z"/>
		<path fill="#FFFFFF" d="M70.395,32.132h6.427V0h-6.427V32.132z"/>
		<path fill="#FFFFFF" d="M97.578,32.132h-5.836v-2.733h-0.074c-1.403,2.217-3.988,3.103-6.574,3.103
			c-3.914,0-7.387-2.216-7.387-6.353c0-7.091,8.643-7.238,13.961-7.238c0-2.216-1.846-3.693-4.063-3.693
			c-2.068,0-3.768,0.96-5.17,2.512l-3.398-3.472c2.29-2.216,5.688-3.324,9.086-3.324c7.461,0,9.455,3.767,9.455,10.71V32.132z
			 M91.742,24.449v-1.402h-1.551c-1.921,0-6.279,0.147-6.279,2.954c0,1.552,1.625,2.29,3.029,2.29
			C89.379,28.291,91.742,27.035,91.742,24.449z"/>
		<path fill="#FFFFFF" d="M114.715,0h6.353l-0.074,32.132h-5.835v-2.733h-0.074c-0.96,1.552-3.472,3.25-6.353,3.25
			c-6.058,0-10.12-4.432-10.12-10.71c0-5.762,3.62-11.006,9.455-11.006c2.66,0,5.098,0.739,6.574,2.733h0.074V0z M110.135,27.035
			c3.177,0,5.098-2.143,5.098-5.244c0-3.103-1.921-5.245-5.098-5.245c-3.176,0-5.097,2.143-5.097,5.245
			C105.038,24.893,106.959,27.035,110.135,27.035z"/>
		<path fill="#FFFFFF" d="M133.551,32.648c-6.353,0-11.449-4.283-11.449-10.857s5.097-10.785,11.449-10.859
			c6.353,0,11.449,4.285,11.449,10.859S139.903,32.648,133.551,32.648z M133.551,16.546c-3.176,0-5.097,2.143-5.097,5.245
			c0,3.176,1.921,5.244,5.097,5.244s5.097-2.143,5.097-5.244C138.647,18.688,136.727,16.546,133.551,16.546z"/>
		<path fill="#FFFFFF" d="M124.761,8.199h3.989V7.165h-2.808v-5.54h-1.182V8.199z"/>
		<path fill="#FFFFFF" d="M129.414,8.199h-1.33l2.808-6.574h1.034l2.807,6.574h-1.33l-0.59-1.478h-2.808L129.414,8.199z
			 M131.408,3.028l-1.033,2.659h2.068L131.408,3.028z"/>
		<path fill="#FFFFFF" d="M135.914,8.199h1.035l1.551-5.023l1.477,5.023h1.183l1.921-6.574h-1.183l-1.329,4.728l-1.478-4.728h-1.108
			l-1.551,4.728l-1.182-4.728h-1.33L135.914,8.199z"/>
		<path fill="#FFFFFF" d="M6.648,32.132H0V1.994h11.154c6.279,0,11.449,1.995,11.449,9.16c0,7.091-4.801,9.233-11.154,9.233H6.648
			V32.132z M10.046,7.682H6.648v7.165h4.358c2.364,0,4.728-0.813,4.728-3.62C15.733,8.125,12.631,7.682,10.046,7.682z"/>
		<path fill="#FFFFFF" d="M26.74,8.643c-2.068,0-3.693-1.625-3.693-3.693c0-1.995,1.699-3.693,3.693-3.693
			c2.068,0,3.693,1.625,3.693,3.693S28.808,8.643,26.74,8.643z M29.99,32.132h-6.353V11.449h6.353V32.132z"/>
		<path fill="#FFFFFF" d="M46.019,11.449h-5.614V5.393h-6.352v6.131H29.99v5.097h4.063v9.824c0,4.506,3.25,6.278,7.534,6.278
			c1.478,0,3.028-0.147,4.506-0.591v-5.318c-0.517,0.517-1.92,0.591-2.585,0.591c-2.733,0-3.028-1.625-3.028-3.841V16.62h5.614
			L46.019,11.449z"/>
	</g>
</g>
</svg>
