<?xml version="1.0" encoding="utf-8"?>
<!-- Generator: Adobe Illustrator 15.0.0, SVG Export Plug-In . SVG Version: 6.00 Build 0)  -->
<!DOCTYPE svg PUBLIC "-//W3C//DTD SVG 1.1//EN" "http://www.w3.org/Graphics/SVG/1.1/DTD/svg11.dtd">
<svg version="1.1" id="Layer_1" xmlns="http://www.w3.org/2000/svg" xmlns:xlink="http://www.w3.org/1999/xlink" x="0px" y="0px"
	 width="55px" height="55px" viewBox="0 0 55 55" enable-background="new 0 0 55 55" xml:space="preserve">
<path fill="#041C2C" d="M18.5,25.671c0-3.956,3.197-7.171,7.132-7.171c3.935,0,7.132,3.215,7.132,7.171
	c0,1.781-0.646,3.411-1.717,4.667l5.453,5.496l-1.18,1.188L29.8,31.484c-1.174,0.854-2.612,1.356-4.169,1.356
	C21.697,32.842,18.5,29.627,18.5,25.671z M31.925,25.671c0-3.5-2.813-6.327-6.293-6.327c-3.48,0-6.293,2.827-6.293,6.327
	s2.813,6.327,6.293,6.327C29.111,31.998,31.925,29.171,31.925,25.671z"/>
<path fill="#041C2C" d="M35.32,37.729l-5.581-5.597c-1.229,0.792-2.64,1.209-4.108,1.209C21.423,33.342,18,29.9,18,25.671
	C18,21.441,21.424,18,25.632,18s7.632,3.441,7.632,7.671c0,1.677-0.547,3.304-1.548,4.632l5.489,5.531L35.32,37.729z M29.955,30.934
	l5.363,5.379l0.477-0.479l-5.329-5.371C30.305,30.628,30.134,30.785,29.955,30.934z M25.632,19.844
	c-3.194,0-5.793,2.614-5.793,5.827s2.599,5.827,5.793,5.827c3.194,0,5.793-2.614,5.793-5.827S28.826,19.844,25.632,19.844z"/>
</svg>
